<svg width="38" height="39" viewBox="0 0 38 39" fill="none" xmlns="http://www.w3.org/2000/svg">
<path d="M11.4971 14.2051C12.2537 14.2817 12.8438 14.9205 12.8438 15.6973V33.9521C12.8436 34.7805 12.1721 35.4521 11.3438 35.4521H6.24023C5.41199 35.452 4.74036 34.7804 4.74023 33.9521V15.6973C4.74023 14.8689 5.41191 14.1974 6.24023 14.1973H11.3438L11.4971 14.2051ZM24.1045 12.6758C26.6261 12.6759 28.9787 13.8721 30.667 15.8848C32.3488 17.8899 33.2597 20.5621 33.2598 23.3037V33.9521C33.2598 34.7806 32.5882 35.4521 31.7598 35.4521H26.6562C25.8279 35.4521 25.1562 34.7805 25.1562 33.9521V23.3037C25.1562 22.8179 24.9921 22.3933 24.7598 22.1162C24.534 21.8472 24.2897 21.7609 24.1045 21.7607C23.9192 21.7608 23.6751 21.847 23.4492 22.1162C23.2168 22.3933 23.0518 22.8177 23.0518 23.3037V33.9521C23.0518 34.7806 22.3802 35.4521 21.5518 35.4521H16.4482C15.6199 35.4521 14.9482 34.7805 14.9482 33.9521V23.3037C14.9483 20.5621 15.8592 17.8899 17.541 15.8848C19.2294 13.8719 21.5827 12.6758 24.1045 12.6758ZM7.74023 32.4521H9.84375V17.1973H7.74023V32.4521ZM24.1045 15.6758C22.5656 15.6758 21.0229 16.403 19.8398 17.8135C18.6503 19.2318 17.9483 21.204 17.9482 23.3037V32.4521H20.0518V23.3037C20.0518 22.1761 20.4259 21.0524 21.1504 20.1885C21.8816 19.3167 22.9363 18.7608 24.1045 18.7607C25.2726 18.7609 26.3265 19.3169 27.0576 20.1885C27.7822 21.0524 28.1562 22.176 28.1562 23.3037V32.4521H30.2598V23.3037C30.2597 21.2039 29.5577 19.2318 28.3682 17.8135C27.1852 16.4032 25.6433 15.6759 24.1045 15.6758ZM8.79199 3.54785C11.266 3.54785 12.8436 5.84004 12.8438 8.09082C12.8436 10.3416 11.2659 12.6328 8.79199 12.6328C6.31829 12.6326 4.74043 10.3414 4.74023 8.09082C4.74039 5.84017 6.31826 3.54811 8.79199 3.54785ZM8.79199 6.54785C8.44716 6.5482 7.74038 6.98171 7.74023 8.09082C7.74041 9.19987 8.44717 9.63246 8.79199 9.63281C9.13666 9.63281 9.84357 9.20032 9.84375 8.09082C9.84361 6.98126 9.13667 6.54785 8.79199 6.54785Z" fill="white"/>
</svg>
