<svg width="34" height="36" viewBox="0 0 34 36" fill="none" xmlns="http://www.w3.org/2000/svg">
<path d="M10.1533 13.001C10.9093 13.0781 11.5 13.7168 11.5 14.4932V30.7666C11.5 31.5948 10.8281 32.2662 10 32.2666H5.50098C4.67256 32.2666 4.00001 31.595 4 30.7666V14.4932L4.00781 14.3398C4.08461 13.5834 4.72431 12.9932 5.50098 12.9932H10L10.1533 13.001ZM21.6729 11.6494C23.7966 11.7767 25.7508 12.8492 27.1719 14.5625C28.6808 16.382 29.494 18.7991 29.4941 21.2734V30.7666C29.4941 31.595 28.8225 32.2666 27.9941 32.2666H23.4951C22.6669 32.2664 21.9951 31.5949 21.9951 30.7666V21.2734C21.995 20.8708 21.8598 20.5284 21.6816 20.3135C21.5102 20.1069 21.3445 20.0615 21.2461 20.0615C21.1477 20.0615 20.982 20.1069 20.8105 20.3135C20.6323 20.5284 20.4972 20.8708 20.4971 21.2734V30.7666C20.497 31.5949 19.8253 32.2664 18.9971 32.2666H14.498C13.6696 32.2666 12.9981 31.595 12.998 30.7666V21.2734C12.9982 18.7991 13.8114 16.382 15.3203 14.5625C16.836 12.735 18.9585 11.6367 21.2461 11.6367L21.6729 11.6494ZM7.00098 29.2666H8.5V15.9932H7.00098V29.2666ZM21.2461 14.6367C19.9546 14.6367 18.6441 15.2535 17.6289 16.4775C16.6071 17.7097 15.9982 19.4322 15.998 21.2734V29.2666H17.4971V21.2734C17.4972 20.2379 17.8358 19.2006 18.501 18.3984C19.1731 17.5882 20.1516 17.0615 21.2461 17.0615C22.3406 17.0615 23.3191 17.5882 23.9912 18.3984C24.6564 19.2006 24.995 20.2379 24.9951 21.2734V29.2666H26.4941V21.2734C26.494 19.4322 25.8851 17.7097 24.8633 16.4775C23.9115 15.33 22.7002 14.7157 21.4883 14.6436L21.2461 14.6367ZM7.75 3.5C10.0707 3.5003 11.4997 5.66083 11.5 7.71191C11.5 9.76317 10.0709 11.9245 7.75 11.9248C5.42896 11.9246 4 9.76321 4 7.71191C4.00027 5.66079 5.42918 3.50021 7.75 3.5ZM7.75 6.5C7.64447 6.5001 7.48352 6.54828 7.31445 6.75195C7.14253 6.95926 7.00111 7.29391 7.00098 7.71191C7.00098 8.13019 7.14245 8.46545 7.31445 8.67285C7.48356 8.87662 7.64445 8.9247 7.75 8.9248C7.8556 8.92466 8.01742 8.87674 8.18652 8.67285C8.35839 8.46542 8.5 8.12994 8.5 7.71191C8.49987 7.29407 8.35836 6.95928 8.18652 6.75195C8.01742 6.54804 7.8556 6.50015 7.75 6.5Z" fill="url(#paint0_linear_396_1217)"/>
<defs>
<linearGradient id="paint0_linear_396_1217" x1="16.7471" y1="3.5" x2="16.7471" y2="32.2666" gradientUnits="userSpaceOnUse">
<stop stop-color="#004AEA"/>
<stop offset="1" stop-color="#002A84"/>
</linearGradient>
</defs>
</svg>
