<?xml version="1.0" encoding="UTF-8"?>
<!DOCTYPE svg PUBLIC "-//W3C//DTD SVG 1.1//EN" "http://www.w3.org/Graphics/SVG/1.1/DTD/svg11.dtd">
<svg xmlns="http://www.w3.org/2000/svg" version="1.1" width="139px" height="92px" style="shape-rendering:geometricPrecision; text-rendering:geometricPrecision; image-rendering:optimizeQuality; fill-rule:evenodd; clip-rule:evenodd" xmlns:xlink="http://www.w3.org/1999/xlink">
<g><path style="opacity:1" fill="#fdfdfd" d="M -0.5,-0.5 C 45.8333,-0.5 92.1667,-0.5 138.5,-0.5C 138.5,30.1667 138.5,60.8333 138.5,91.5C 92.1667,91.5 45.8333,91.5 -0.5,91.5C -0.5,60.8333 -0.5,30.1667 -0.5,-0.5 Z"/></g>
<g><path style="opacity:1" fill="#2e24b4" d="M 96.5,18.5 C 96.5,18.8333 96.5,19.1667 96.5,19.5C 79.7744,15.3961 63.1078,15.5628 46.5,20C 41.1945,21.9861 36.1945,24.4861 31.5,27.5C 31.4142,26.5041 31.7476,25.6708 32.5,25C 31.9056,24.5357 31.2389,24.369 30.5,24.5C 34.2241,21.3045 38.5574,19.1379 43.5,18C 61.2185,12.0892 78.8852,12.2559 96.5,18.5 Z"/></g>
<g><path style="opacity:1" fill="#5e54c0" d="M 105.5,19.5 C 110.368,21.3815 114.701,24.0482 118.5,27.5C 117.833,27.5 117.5,27.8333 117.5,28.5C 113.476,25.4686 109.476,22.4686 105.5,19.5 Z"/></g>
<g><path style="opacity:1" fill="#1b14df" d="M 30.5,24.5 C 31.2389,24.369 31.9056,24.5357 32.5,25C 31.7476,25.6708 31.4142,26.5041 31.5,27.5C 21.6993,34.4332 18.0327,43.7665 20.5,55.5C 20.7373,56.791 20.404,57.791 19.5,58.5C 17.8639,57.2511 16.6972,55.5844 16,53.5C 13.9471,40.2721 18.7805,30.6055 30.5,24.5 Z"/></g>
<g><path style="opacity:1" fill="#f8f6f8" d="M 96.5,19.5 C 96.5,19.1667 96.5,18.8333 96.5,18.5C 98.5914,18.6816 100.591,18.3482 102.5,17.5C 103.739,17.9424 104.739,18.6091 105.5,19.5C 109.476,22.4686 113.476,25.4686 117.5,28.5C 128.131,43.6716 125.798,56.6716 110.5,67.5C 94.4718,75.6015 77.4718,78.6015 59.5,76.5C 51.9209,74.8592 44.5876,72.1926 37.5,68.5C 36.3044,68.8457 36.3044,69.3457 37.5,70C 42.4887,72.4856 47.4887,74.6523 52.5,76.5C 49.4721,76.6611 46.6388,75.9944 44,74.5C 43.1268,74.7355 42.2935,75.0688 41.5,75.5C 37.7712,73.977 34.4379,71.977 31.5,69.5C 27.0734,65.4095 23.4067,60.7428 20.5,55.5C 18.0327,43.7665 21.6993,34.4332 31.5,27.5C 36.1945,24.4861 41.1945,21.9861 46.5,20C 63.1078,15.5628 79.7744,15.3961 96.5,19.5 Z"/></g>
<g><path style="opacity:1" fill="#6660a9" d="M 96.5,19.5 C 99.8524,19.7837 102.852,20.9504 105.5,23C 102.249,22.5266 99.249,21.3599 96.5,19.5 Z"/></g>
<g><path style="opacity:1" fill="#c3372e" d="M 54.5,34.5 C 51.3567,34.969 49.0233,36.6356 47.5,39.5C 46.8333,39.5 46.1667,39.5 45.5,39.5C 45.631,38.7611 45.4643,38.0944 45,37.5C 42.3255,39.8705 39.1589,41.0372 35.5,41C 37.3359,42.419 39.3359,43.5857 41.5,44.5C 42.8333,45.5 42.8333,46.5 41.5,47.5C 38.8515,45.3418 35.8515,44.0084 32.5,43.5C 32.33,42.1779 32.6634,41.0113 33.5,40C 36.1667,39.3333 38.8333,38.6667 41.5,38C 45.2349,36.4338 45.2349,35.2671 41.5,34.5C 39.4205,34.6858 37.9205,35.6858 37,37.5C 36.3828,36.5509 36.5494,35.7175 37.5,35C 35.5,35 33.5,35 31.5,35C 35.2938,31.2015 39.6271,30.5349 44.5,33C 45.0712,34.2051 45.7379,35.3717 46.5,36.5C 48.3159,35.1851 49.9825,33.6851 51.5,32C 52.448,31.5172 53.448,31.3505 54.5,31.5C 54.5,32.5 54.5,33.5 54.5,34.5 Z"/></g>
<g><path style="opacity:1" fill="#c53730" d="M 101.5,31.5 C 102.833,31.5 104.167,31.5 105.5,31.5C 106.903,36.4671 105.736,40.8005 102,44.5C 102.044,42.7215 102.711,41.0548 104,39.5C 104.135,33.6036 102.135,33.2702 98,38.5C 96.0477,47.6956 95.381,47.6956 96,38.5C 97.6665,36.0043 99.4998,33.671 101.5,31.5 Z"/></g>
<g><path style="opacity:1" fill="#bf433a" d="M 71.5,40.5 C 71.5858,39.5041 71.2524,38.6708 70.5,38C 72.0905,36.9542 73.5905,35.7875 75,34.5C 75.654,37.5218 74.4874,39.5218 71.5,40.5 Z"/></g>
<g><path style="opacity:1" fill="#8e8d8f" d="M 111.5,30.5 C 114.408,31.1593 114.742,31.9926 112.5,33C 113.833,34 113.833,35 112.5,36C 115.184,37.8453 114.851,39.012 111.5,39.5C 110,39.5472 109,38.8805 108.5,37.5C 109.074,35.9411 109.74,34.4411 110.5,33C 110.167,32.6667 109.833,32.3333 109.5,32C 110.416,31.7216 111.082,31.2216 111.5,30.5 Z"/></g>
<g><path style="opacity:1" fill="#b9413e" d="M 92.5,31.5 C 93.1894,30.2264 94.0228,30.2264 95,31.5C 95.047,35.731 93.2137,39.0644 89.5,41.5C 88.479,40.9984 88.3123,40.3317 89,39.5C 92.7546,37.6838 93.9213,35.0172 92.5,31.5 Z"/></g>
<g><path style="opacity:1" fill="#1f15e2" d="M 118.5,27.5 C 121.134,29.9693 123.634,32.636 126,35.5C 127.128,37.3453 127.628,39.3453 127.5,41.5C 127.665,44.5184 127.498,47.5184 127,50.5C 125.463,54.2287 123.963,57.8954 122.5,61.5C 120.497,64.4975 117.83,66.8309 114.5,68.5C 113.07,68.4208 111.736,68.7542 110.5,69.5C 109.537,69.0302 109.537,68.3635 110.5,67.5C 125.798,56.6716 128.131,43.6716 117.5,28.5C 117.5,27.8333 117.833,27.5 118.5,27.5 Z"/></g>
<g><path style="opacity:1" fill="#f9f0ef" d="M 54.5,34.5 C 54.4722,40.2653 51.8055,43.9319 46.5,45.5C 46.3253,43.3792 46.6586,41.3792 47.5,39.5C 49.0233,36.6356 51.3567,34.969 54.5,34.5 Z"/></g>
<g><path style="opacity:1" fill="#c34b44" d="M 66.5,37.5 C 67.4972,37.4701 68.1639,37.9701 68.5,39C 67.7082,40.9597 66.3749,42.4597 64.5,43.5C 65.1667,44.1667 65.8333,44.8333 66.5,45.5C 64.5054,46.8899 63.172,46.3899 62.5,44C 63.25,41.4288 64.5833,39.2622 66.5,37.5 Z"/></g>
<g><path style="opacity:1" fill="#c72a29" d="M 71.5,40.5 C 71.3573,42.2624 71.6906,43.9291 72.5,45.5C 71.675,46.3857 70.675,46.719 69.5,46.5C 69.2594,44.1016 69.9261,42.1016 71.5,40.5 Z"/></g>
<g><path style="opacity:1" fill="#ca3e37" d="M 92.5,31.5 C 90.8729,33.6298 89.0396,35.6298 87,37.5C 84.9937,40.5358 84.1604,43.8691 84.5,47.5C 90.4273,47.3671 90.7606,48.0338 85.5,49.5C 82.8313,49.4928 81.4979,48.1594 81.5,45.5C 83.278,39.2424 86.9446,34.5757 92.5,31.5 Z"/></g>
<g><path style="opacity:1" fill="#ac5452" d="M 54.5,34.5 C 55.7169,38.9614 54.3836,42.7947 50.5,46C 45.0762,46.6414 43.4095,44.4747 45.5,39.5C 46.1667,39.5 46.8333,39.5 47.5,39.5C 46.6586,41.3792 46.3253,43.3792 46.5,45.5C 51.8055,43.9319 54.4722,40.2653 54.5,34.5 Z"/></g>
<g><path style="opacity:1" fill="#2d20a7" d="M 127.5,41.5 C 129.281,44.1834 129.781,47.1834 129,50.5C 127.443,54.55 125.276,58.2167 122.5,61.5C 123.963,57.8954 125.463,54.2287 127,50.5C 127.498,47.5184 127.665,44.5184 127.5,41.5 Z"/></g>
<g><path style="opacity:1" fill="#4137ca" d="M 71.5,56.5 C 72.7514,54.439 74.4181,54.1057 76.5,55.5C 75.8195,57.8889 74.9862,60.2222 74,62.5C 73.9633,60.0261 73.13,58.0261 71.5,56.5 Z"/></g>
<g><path style="opacity:1" fill="#b5adf8" d="M 47.5,55.5 C 49.2646,54.5386 51.2646,54.2053 53.5,54.5C 52.6586,56.3792 52.3253,58.3792 52.5,60.5C 52.1667,60.5 51.8333,60.5 51.5,60.5C 48.2027,60.6713 47.8694,60.0046 50.5,58.5C 47.9244,57.1166 48.2577,56.2833 51.5,56C 50.2068,55.51 48.8734,55.3433 47.5,55.5 Z"/></g>
<g><path style="opacity:1" fill="#3026d5" d="M 53.5,54.5 C 57.2739,54.4836 58.2739,56.1503 56.5,59.5C 56.8076,60.3081 57.3076,60.9747 58,61.5C 58.5431,59.3686 59.3764,57.3686 60.5,55.5C 61.3333,56.5 62.1667,57.5 63,58.5C 63.2492,57.376 63.7492,56.376 64.5,55.5C 65.1131,56.9798 65.4464,58.3131 65.5,59.5C 66.624,58.086 67.624,56.586 68.5,55C 69.788,54.7613 70.788,55.2613 71.5,56.5C 71.8186,58.7505 71.3186,60.7505 70,62.5C 68.8456,60.0426 67.5123,60.0426 66,62.5C 65.3086,60.1088 64.3086,60.1088 63,62.5C 62.0853,61.6721 61.4186,60.6721 61,59.5C 60.5917,61.4096 59.4251,62.4096 57.5,62.5C 55.8953,61.5697 54.3953,61.5697 53,62.5C 52.5357,61.9056 52.369,61.2389 52.5,60.5C 52.3253,58.3792 52.6586,56.3792 53.5,54.5 Z"/></g>
<g><path style="opacity:1" fill="#3228b7" d="M 103.5,54.5 C 104.216,56.5563 104.883,58.723 105.5,61C 104.975,61.6924 104.308,62.1924 103.5,62.5C 102.271,59.8013 102.271,57.1346 103.5,54.5 Z"/></g>
<g><path style="opacity:1" fill="#433ebc" d="M 31.5,54.5 C 32.4972,54.4701 33.1639,54.9701 33.5,56C 32.5279,58.1113 31.6946,60.2779 31,62.5C 30.2782,59.7395 30.4448,57.0728 31.5,54.5 Z"/></g>
<g><path style="opacity:1" fill="#1613cf" d="M 47.5,55.5 C 48.8734,55.3433 50.2068,55.51 51.5,56C 48.2577,56.2833 47.9244,57.1166 50.5,58.5C 47.8694,60.0046 48.2027,60.6713 51.5,60.5C 50.2196,61.9313 48.5529,62.5979 46.5,62.5C 46.298,60.0504 46.6314,57.717 47.5,55.5 Z"/></g>
<g><path style="opacity:1" fill="#362dd5" d="M 81.5,55.5 C 88.021,55.2383 89.021,57.405 84.5,62C 83.2161,62.6838 82.0495,62.5171 81,61.5C 80.5099,59.4546 80.6765,57.4546 81.5,55.5 Z"/></g>
<g><path style="opacity:1" fill="#e5e8fd" d="M 83.5,57.5 C 86.0118,58.2162 86.0118,59.2162 83.5,60.5C 82.4376,59.5754 82.4376,58.5754 83.5,57.5 Z"/></g>
<g><path style="opacity:1" fill="#3f38d7" d="M 77.5,55.5 C 78.7251,56.1522 79.3917,57.3189 79.5,59C 79.1667,60.1667 78.8333,61.3333 78.5,62.5C 77.5258,60.2573 77.1924,57.924 77.5,55.5 Z"/></g>
<g><path style="opacity:1" fill="#3f33c9" d="M 39.5,54.5 C 41.604,54.2011 43.604,54.5344 45.5,55.5C 44.2081,57.6666 43.3747,59.9999 43,62.5C 41.883,61.0506 41.2163,59.3839 41,57.5C 40.6397,59.4211 39.8064,61.0878 38.5,62.5C 37.5224,62.0233 36.6891,61.3567 36,60.5C 35.6924,61.3081 35.1924,61.9747 34.5,62.5C 33.9426,60.2825 33.9426,57.9491 34.5,55.5C 35.5,55.5 36.5,55.5 37.5,55.5C 37.3505,56.552 37.5172,57.552 38,58.5C 38.4101,57.0993 38.9101,55.766 39.5,54.5 Z"/></g>
<g><path style="opacity:1" fill="#332aca" d="M 93.5,54.5 C 94.3019,55.9516 94.8019,57.6183 95,59.5C 99.9295,52.8854 101.43,53.8854 99.5,62.5C 98.1667,59.8333 96.8333,59.8333 95.5,62.5C 94.5,61.1667 93.5,61.1667 92.5,62.5C 91.1667,59.8333 89.8333,59.8333 88.5,62.5C 88.162,60.3448 88.162,58.0115 88.5,55.5C 89.5,55.5 90.5,55.5 91.5,55.5C 91.281,56.675 91.6143,57.675 92.5,58.5C 93.4287,57.3112 93.762,55.9778 93.5,54.5 Z"/></g>
<g><path style="opacity:1" fill="#3d2fbb" d="M 20.5,55.5 C 23.4067,60.7428 27.0734,65.4095 31.5,69.5C 26.2435,67.2451 22.2435,63.5784 19.5,58.5C 20.404,57.791 20.7373,56.791 20.5,55.5 Z"/></g>
<g><path style="opacity:1" fill="#564fa1" d="M 59.5,76.5 C 58.1667,76.5 56.8333,76.5 55.5,76.5C 54.5,76.5 53.5,76.5 52.5,76.5C 47.4887,74.6523 42.4887,72.4856 37.5,70C 36.3044,69.3457 36.3044,68.8457 37.5,68.5C 44.5876,72.1926 51.9209,74.8592 59.5,76.5 Z"/></g>
<g><path style="opacity:1" fill="#241eab" d="M 110.5,67.5 C 109.537,68.3635 109.537,69.0302 110.5,69.5C 111.736,68.7542 113.07,68.4208 114.5,68.5C 99.788,77.2366 83.788,80.7366 66.5,79C 62.6083,78.5812 58.9416,77.7479 55.5,76.5C 56.8333,76.5 58.1667,76.5 59.5,76.5C 77.4718,78.6015 94.4718,75.6015 110.5,67.5 Z"/></g>
</svg>
