<svg width="36" height="37" viewBox="0 0 36 37" fill="none" xmlns="http://www.w3.org/2000/svg">
<path d="M24.9 9.23C23.8746 8.05943 23.3096 6.55615 23.31 5H18.675V23.6C18.6392 24.6065 18.2143 25.5599 17.4896 26.2594C16.765 26.9589 15.7972 27.3499 14.79 27.35C12.66 27.35 10.89 25.61 10.89 23.45C10.89 20.87 13.38 18.935 15.945 19.73V14.99C10.77 14.3 6.23999 18.32 6.23999 23.45C6.23999 28.445 10.38 32 14.775 32C19.485 32 23.31 28.175 23.31 23.45V14.015C25.1895 15.3648 27.446 16.089 29.76 16.085V11.45C29.76 11.45 26.94 11.585 24.9 9.23Z" fill="url(#paint0_linear_89_735)"/>
<path d="M24.9 9.23C23.8746 8.05943 23.3096 6.55615 23.31 5H18.675V23.6C18.6392 24.6065 18.2143 25.5599 17.4896 26.2594C16.765 26.9589 15.7972 27.3499 14.79 27.35C12.66 27.35 10.89 25.61 10.89 23.45C10.89 20.87 13.38 18.935 15.945 19.73V14.99C10.77 14.3 6.23999 18.32 6.23999 23.45C6.23999 28.445 10.38 32 14.775 32C19.485 32 23.31 28.175 23.31 23.45V14.015C25.1895 15.3648 27.446 16.089 29.76 16.085V11.45C29.76 11.45 26.94 11.585 24.9 9.23Z" fill="url(#paint1_linear_89_735)"/>
<path d="M24.9 9.23C23.8746 8.05943 23.3096 6.55615 23.31 5H18.675V23.6C18.6392 24.6065 18.2143 25.5599 17.4896 26.2594C16.765 26.9589 15.7972 27.3499 14.79 27.35C12.66 27.35 10.89 25.61 10.89 23.45C10.89 20.87 13.38 18.935 15.945 19.73V14.99C10.77 14.3 6.23999 18.32 6.23999 23.45C6.23999 28.445 10.38 32 14.775 32C19.485 32 23.31 28.175 23.31 23.45V14.015C25.1895 15.3648 27.446 16.089 29.76 16.085V11.45C29.76 11.45 26.94 11.585 24.9 9.23Z" fill="url(#paint2_linear_89_735)"/>
<defs>
<linearGradient id="paint0_linear_89_735" x1="18" y1="5" x2="18" y2="32" gradientUnits="userSpaceOnUse">
<stop stop-color="#004AEA"/>
<stop offset="1" stop-color="#002A84"/>
</linearGradient>
<linearGradient id="paint1_linear_89_735" x1="18" y1="5" x2="18" y2="32" gradientUnits="userSpaceOnUse">
<stop stop-color="#004AEA"/>
<stop offset="1" stop-color="#002A84"/>
</linearGradient>
<linearGradient id="paint2_linear_89_735" x1="18" y1="5" x2="18" y2="32" gradientUnits="userSpaceOnUse">
<stop stop-color="#004AEA"/>
<stop offset="1" stop-color="#002A84"/>
</linearGradient>
</defs>
</svg>
